<svg width="155" height="65" viewBox="0 0 155 65" fill="none" xmlns="http://www.w3.org/2000/svg">
<path d="M122.226 31.9617C130.511 29.2061 135.939 25.6204 146.451 16.332C145.672 23.9972 143.944 29.1149 139.963 38.8215C132.374 38.9981 128.556 37.3314 122.226 31.9617Z" fill="#026670"/>
<path d="M108.003 16.4758C101.148 21.4522 98.411 25.3162 93.4348 32.1227C104.496 30.426 110.536 30.159 120.971 32.0416C117.826 25.5309 117.589 21.5212 108.003 16.4758Z" fill="#9FEDD7"/>
<path d="M125.842 22.7794C124.932 19.6462 123.431 16.6723 121.171 13.0048C118.954 23.282 115.826 30.1082 109.135 42.2249C116.298 39.6201 120.468 37.971 126.931 34.0243C127.094 29.4496 126.781 26.0179 125.842 22.7794Z" stroke="#EDEAE5" stroke-width="0.6"/>
<path d="M32.7736 31.9538C24.4892 29.1982 19.0611 25.6126 8.54883 16.3242C9.32825 23.9894 11.0562 29.1071 15.0372 38.8137C22.626 38.9903 26.4436 37.3235 32.7736 31.9538Z" fill="#026670"/>
<path d="M46.9978 16.4679C53.852 21.4444 56.5895 25.3084 61.5657 32.1149C50.5045 30.4182 44.4644 30.1512 34.0294 32.0338C37.1744 25.5231 37.4115 21.5134 46.9978 16.4679Z" fill="#EDEAE5"/>
<path d="M29.1585 22.7794C30.0676 19.6462 31.5693 16.6723 33.8287 13.0048C36.046 23.282 39.1736 30.1082 45.8645 42.2249C38.7016 39.6201 34.5316 37.971 28.0688 34.0243C27.9059 29.4496 28.2188 26.0179 29.1585 22.7794Z" stroke="#9FEDD7" stroke-width="0.6"/>
<path d="M71.1273 26.1899C70.6966 26.1899 70.3906 26.3372 70.2093 26.6319C70.0279 26.9152 69.9373 27.3629 69.9373 27.9749V28.5019C69.9373 28.5472 69.9599 28.5699 70.0053 28.5699H71.3143C71.4276 28.5699 71.4843 28.6265 71.4843 28.7399V29.3009C71.4843 29.4142 71.4276 29.4709 71.3143 29.4709H70.0053C69.9599 29.4709 69.9373 29.4935 69.9373 29.5389V37.0019C69.9373 37.1152 69.8806 37.1719 69.7673 37.1719H68.9173C68.8039 37.1719 68.7473 37.1152 68.7473 37.0019V29.5389C68.7473 29.4935 68.7246 29.4709 68.6793 29.4709H67.9993C67.8859 29.4709 67.8293 29.4142 67.8293 29.3009V28.7399C67.8293 28.6265 67.8859 28.5699 67.9993 28.5699H68.6793C68.7246 28.5699 68.7473 28.5472 68.7473 28.5019V27.9579C68.7473 26.9719 68.9286 26.2579 69.2913 25.8159C69.6539 25.3739 70.2603 25.1529 71.1103 25.1529H71.3483C71.4616 25.1529 71.5183 25.2095 71.5183 25.3229L71.5013 26.0199C71.5013 26.1332 71.4446 26.1899 71.3313 26.1899H71.1273ZM74.7711 37.1719C74.7144 37.1719 74.6691 37.1549 74.6351 37.1209C74.6124 37.0869 74.6068 37.0415 74.6181 36.9849L77.6951 25.4249C77.7178 25.3229 77.7801 25.2719 77.8821 25.2719H78.7321C78.7888 25.2719 78.8284 25.2889 78.8511 25.3229C78.8851 25.3569 78.8964 25.4022 78.8851 25.4589L75.8081 37.0189C75.7854 37.1209 75.7231 37.1719 75.6211 37.1719H74.7711ZM85.8402 28.4849C86.1236 28.4849 86.3672 28.5472 86.5712 28.6719C86.6506 28.7172 86.6789 28.7909 86.6562 28.8929L86.4522 29.7769C86.4409 29.8789 86.3729 29.9129 86.2482 29.8789C86.1122 29.8109 85.9422 29.7769 85.7382 29.7769C85.6476 29.7769 85.5796 29.7825 85.5342 29.7939C85.1262 29.8165 84.7919 30.0319 84.5312 30.4399C84.2706 30.8365 84.1402 31.3239 84.1402 31.9019V37.0019C84.1402 37.1152 84.0836 37.1719 83.9702 37.1719H83.1032C82.9899 37.1719 82.9332 37.1152 82.9332 37.0019V28.7399C82.9332 28.6265 82.9899 28.5699 83.1032 28.5699H83.9702C84.0836 28.5699 84.1402 28.6265 84.1402 28.7399V29.7599C84.1402 29.7939 84.1459 29.8109 84.1572 29.8109C84.1799 29.8109 84.2026 29.7995 84.2252 29.7769C84.5539 28.9155 85.0922 28.4849 85.8402 28.4849Z" fill="#026670"/>
<path d="M140.879 45.7656H14.8767V46.4454H140.879V45.7656Z" fill="url(#paint0_linear)"/>
<defs>
<linearGradient id="paint0_linear" x1="14.8767" y1="46.4449" x2="140.879" y2="46.4454" gradientUnits="userSpaceOnUse">
<stop stop-color="#026670"/>
<stop offset="0.105872" stop-color="#228185"/>
<stop offset="0.244503" stop-color="#4BA5A0"/>
<stop offset="0.381234" stop-color="#74C8BB"/>
<stop offset="0.524929" stop-color="#9FEDD7"/>
<stop offset="0.652165" stop-color="#B4ECDB"/>
<stop offset="0.761677" stop-color="#C6ECDE"/>
<stop offset="0.888913" stop-color="#DBEBE2"/>
<stop offset="1" stop-color="#EDEAE5"/>
</linearGradient>
</defs>
</svg>
